<svg xmlns="http://www.w3.org/2000/svg" xmlns:xlink="http://www.w3.org/1999/xlink" width="999.771" height="1421.44" viewBox="0 0 999.771 1421.44"><defs><clipPath id="a"><rect width="999.771" height="1421.44" transform="translate(0 0)" fill="#fff" stroke="#707070" stroke-width="1"/></clipPath></defs><g clip-path="url(#a)"><path d="M2023.526,895.3c0-448.255-345.908-800.8-788.473-800.8-192.381,0-377.18,77.71-473.845,156.368S437.1,520.959,437.1,890.558s271.983,599.885,271.983,599.885c272.932,213.23,617.891,281.464,969.484,54.02C2032.054,1317.017,2023.526,895.3,2023.526,895.3Zm-97.61-221.759c-.949,17.058-130.779,131.729-157.314,131.729s-37.909-32.222-37.909-57.81,23.693-121.3,23.693-163.949-13.268-47.385-13.268-47.385,143.1,60.652,163.944,83.4C1905.062,619.519,1927.806,657.428,1925.916,673.537Zm-561.982,18.006s-114.665-34.115-207.539-34.115c0,0,38.85-18.956,52.122-55.916s43.59-166.793,92.87-166.793,40.748,85.292,36.015,164.9C1336.454,647,1351.619,671.64,1363.935,691.543ZM1171.553,512.429c-33.169,89.082-45.488,105.194-69.177,105.194s-45.492-36.012-59.7-123.2-23.692-92.874-45.492-116.567c0,0,168.692,4.74,239.767,20.851C1236.947,398.708,1204.726,423.348,1171.553,512.429ZM1049.306,747.456c42.641,0,47.382,89.083,47.382,130.781s41.7,116.565,41.7,116.565C1044.566,971.111,929.9,984.378,929.9,984.378c29.374-18.006,50.224-90.978,56.862-126.99S1006.656,747.456,1049.306,747.456ZM918.523,858.337c-19.905,103.3-69.181,140.256-119.405,4.738-22.748-66.338-31.276-100.454-80.558-131.729,0,0,156.365-21.8,264.408-21.8C982.015,710.5,938.424,755.987,918.523,858.337Zm204.7,192.38s-42.642,36.013-69.173,103.3-52.129,124.148-76.767,124.148-48.327-85.293-71.071-145-42.65-71.078-62.551-85.292C843.657,1047.874,1016.137,1030.815,1123.219,1050.717Zm-29.37,176.271c30.323-77.711,49.275-130.781,89.078-130.781,40.748,0,40.748,69.18,42.642,166.793,0,57.809,28.433,87.188,28.433,87.188s-104.24-44.542-213.227-44.542C1041.723,1305.645,1064.467,1304.7,1093.849,1226.988Zm123.2-258.719c-21.8,0-54.964-37.908-59.7-131.729-5.689-93.821-44.543-123.2-44.543-123.2s196.172,20.848,272.936,50.226c0,0-54.968,30.327-84.346,103.3S1239.785,968.268,1217.045,968.268Zm244.5,105.193s-38.854-29.378-192.381-60.652c0,0,22.744-4.739,62.547-74.867S1396.155,813.8,1425.537,813.8s31.271,38.856,31.271,61.6S1447.332,1045.979,1461.548,1073.462Zm66.338,99.506s-37.909.949-79.606,54.966-132.676,192.38-161.1,33.169c-12.327-162.054,4.732-142.154-32.228-189.538C1255.9,1070.618,1444.493,1111.368,1527.886,1172.968Zm158.267-364.86s-88.134-46.436-199.019-83.4c0,0,21.8,1.895,52.126-38.857s81.5-148.787,126.039-148.787c0,0,24.642,1.9,24.642,48.332C1690.885,632.787,1657.72,755.039,1686.154,808.108ZM1513.67,1005.228s8.528-102.351,8.528-137.415-8.528-57.809-19.9-71.076c0,0,159.216,52.123,255.881,117.513,0,0-36.016,2.844-86.236,54.967S1520.3,1154.962,1513.67,1005.228Zm267.251-593.253c72.019,84.344,76.763,113.724,76.763,113.724-32.228-27.483-138.365-67.288-138.365-67.288C1749.646,446.093,1780.921,411.975,1780.921,411.975ZM1631.185,284.037s60.649,40.751,98.555,76.763c0,0-33.165,53.071-53.067,53.071s-54.961-30.326-54.961-82.448C1621.713,303.94,1631.185,284.037,1631.185,284.037ZM1559.162,545.6c-18.956,32.221-78.661,131.729-113.724,131.729s-42.646-57.81-41.7-85.292,8.531-141.206-24.646-175.323c0,0,62.547,8.529,232.188,73.92C1611.284,490.633,1578.114,514.326,1559.162,545.6Zm13.264-301.365c-20.846,70.129,10.425,174.375,10.425,174.375-73.917-43.594-182.9-54.967-182.9-54.967,43.587-36.959,93.819-152.577,93.819-152.577C1525.044,212.961,1572.426,244.235,1572.426,244.235Zm-137.417-56.862s-62.543,135.519-98.555,135.519-54.969-54.017-61.6-162.054C1273.9,160.838,1343.084,153.257,1435.009,187.373ZM1117.542,172.21s60.65-11.372,99.5-11.372c0,0-3.791,148.787,38.858,181.008,0,0-104.251-23.692-198.07-23.692C1056.884,317.208,1109.01,274.561,1117.542,172.21Zm-64.448,9.477s-30.323,110.88-62.547,110.88-50.228-65.391-50.228-65.391ZM982.967,516.221c14.212,59.7,25.586,111.827,53.067,136.467,0,0-83.393-7.582-206.59,7.583l2.839-6.635s26.536-25.587,32.224-63.5,26.535-184.8,60.649-184.8S968.751,457.465,982.967,516.221ZM880.613,248.974s14.217,38.854,41.7,69.181c0,0-103.3,0-154.476,13.268ZM692.024,398.708S806.7,380.7,854.082,380.7c0,0-36.015,48.332-36.015,99.506s-18,152.579-57.811,152.579S665.492,504.848,643.693,456.516C644.642,457.465,676.863,412.924,692.024,398.708Zm-83.4,115.618c32.224,108.036,90.984,160.159,90.984,160.159-79.61,0-175.322,43.594-175.322,43.594C534.71,619.519,608.627,514.326,608.627,514.326Zm-101.4,273.881,83.4-30.325s-21.8,28.429-21.8,72.023,1.9,116.566-2.839,140.257c-4.74,22.745-30.327,55.915-50.232,55.915C515.753,1026.078,493.013,944.574,507.225,788.207Zm165.85,432.147c0,78.657-23.693,97.612-23.693,97.612C597.257,1282.9,537.552,1118,537.552,1118c104.248-40.75,170.582-50.226,170.582-50.226C687.284,1096.207,673.075,1140.746,673.075,1220.354Zm-69.185-186.7c32.216-44.541,18.008-64.442,25.587-163.95S675.914,727.556,721.4,840.33s88.137,152.578,88.137,152.578C735.622,993.856,603.89,1033.659,603.89,1033.659ZM741.3,1255.418c0-36.96,15.161-355.382,127.94-25.588,0,0,14.216,42.646,43.6,72.024,0,0-160.165,12.319-200.913,41.7C711.929,1343.553,741.3,1292.377,741.3,1255.418Zm73.925,231.235s-48.33-24.639-98.558-78.659c0,0,85.295-33.168,137.412-33.168C854.082,1374.826,815.228,1396.623,815.228,1486.653Zm52.122,37.907c0-12.32,13.264-56.862,13.264-56.862,22.744-84.343,71.074-67.284,91.929,8.53s36.012,107.09,36.012,107.09C951.688,1566.259,867.35,1524.56,867.35,1524.56Zm235.971,77.711c-42.646,0-48.33-98.56-73.921-161.107s-51.177-74.867-51.177-74.867,170.586-2.845,320.321,60.65c0,0-37.906,0-74.87,52.123S1145.975,1602.272,1103.321,1602.272Zm244.5,7.581s-58.756,7.582-147.838,7.582a186.483,186.483,0,0,0,39.8-43.593c17.063-26.536,54.969-90.031,85.3-90.031C1354.458,1483.809,1360.147,1539.724,1347.824,1609.852Zm57.811-4.739s24.642-65.389.949-129.833c0,0,84.346,41.7,123.2,77.711C1529.78,1552.991,1458.7,1589.951,1405.635,1605.113Zm155.421-241.66c-18,54.966-12.319,109.932-7.583,135.518,0,0-72.028-66.337-180.058-109.931,0,0,36.96-22.743,56.862-43.592s84.342-112.775,126.039-112.775S1579.063,1308.488,1561.056,1363.453Zm72.972,139.312s-28.433-28.432-28.433-52.124,47.389-140.259,47.389-174.374-7.583-46.437-7.583-46.437,130.779,90.031,149.736,116.566C1795.137,1346.4,1747.751,1414.629,1634.028,1502.765Zm120.357-268.2s-70.134-61.6-174.377-108.036c0,0,48.33-12.319,81.5-53.07s84.338-99.508,108.984-99.508,31.268,22.744,31.268,40.749S1733.535,1173.917,1754.385,1234.567ZM1852.94,1263s-43.594-19.9-43.594-48.333,55.921-181.008,55.921-201.857-7.583-40.751-7.583-40.751c22.744,9.476,81.5,60.652,81.5,60.652C1932.55,1139.8,1852.94,1263,1852.94,1263ZM1953.4,966.373s-83.4-72.024-160.161-107.088c0,0,17.055,8.529,72.972-41.7,54.968-50.228,75.823-72.973,75.823-72.973S1974.25,910.459,1953.4,966.373Z" transform="translate(-209.195 -318.683)" fill="#00674c" opacity="0.1"/></g></svg>