<svg xmlns="http://www.w3.org/2000/svg" xmlns:xlink="http://www.w3.org/1999/xlink" width="937.835" height="1333.382" viewBox="0 0 937.835 1333.382"><defs><clipPath id="a"><rect width="937.835" height="1333.382" transform="translate(0 0)" fill="#fff" stroke="#707070" stroke-width="1"/></clipPath></defs><g clip-path="url(#a)"><path d="M1925.247,845.686C1925.247,425.2,1600.768,94.5,1185.62,94.5c-180.463,0-353.813,72.9-444.49,146.681S437.1,494.54,437.1,841.242s255.134,562.722,255.134,562.722c256.024,200.021,579.613,264.028,909.424,50.673C1933.246,1241.281,1925.247,845.686,1925.247,845.686Zm-91.563-208.021c-.89,16-122.677,123.568-147.569,123.568s-35.561-30.226-35.561-54.228,22.225-113.789,22.225-153.792-12.446-44.449-12.446-44.449,134.233,56.895,153.788,78.23C1814.121,586.994,1835.456,622.554,1833.684,637.666Zm-527.167,16.89s-107.562-32-194.682-32c0,0,36.443-17.781,48.893-52.452s40.89-156.46,87.116-156.46,38.224,80.008,33.784,154.682C1280.739,612.774,1294.965,635.886,1306.517,654.556ZM1126.054,486.539c-31.114,83.564-42.67,98.678-64.891,98.678s-42.674-33.781-56.006-115.567-22.225-87.12-42.674-109.346c0,0,158.242,4.446,224.913,19.559C1187.4,379.863,1157.172,402.976,1126.054,486.539ZM1011.38,707.005c40,0,44.446,83.565,44.446,122.679s39.114,109.344,39.114,109.344c-88.006-22.224-195.572-9.778-195.572-9.778,27.554-16.89,47.113-85.342,53.339-119.123S971.372,707.005,1011.38,707.005ZM888.7,811.017c-18.672,96.9-64.895,131.567-112.008,4.445-21.339-62.229-29.338-94.231-75.568-123.568,0,0,146.679-20.446,248.028-20.446C948.257,672.336,907.367,715.007,888.7,811.017Zm192.015,180.462s-40,33.782-64.888,96.9-48.9,116.457-72.012,116.457-45.333-80.009-66.668-136.014-40.007-66.674-58.676-80.008C818.471,988.812,980.265,972.81,1080.714,991.479Zm-27.551,165.351c28.444-72.9,46.223-122.679,83.56-122.679,38.224,0,38.224,64.894,40,156.46,0,54.228,26.671,81.786,26.671,81.786s-97.782-41.783-200.018-41.783C1004.266,1230.614,1025.6,1229.726,1053.163,1156.83Zm115.564-242.692c-20.448,0-51.559-35.56-56.005-123.568C1107.385,702.561,1070.938,675,1070.938,675s184.019,19.557,256.027,47.115c0,0-51.563,28.448-79.121,96.9S1190.059,914.138,1168.727,914.138Zm229.356,98.677s-36.447-27.558-180.463-56.895c0,0,21.335-4.446,58.672-70.229s60.449-116.456,88.01-116.456,29.334,36.449,29.334,57.783S1384.747,987.034,1398.083,1012.815Zm62.229,93.342s-35.561.89-74.674,51.561-124.457,180.462-151.121,31.114c-11.563-152.015,4.439-133.348-30.231-177.8C1205.178,1010.147,1382.085,1048.373,1460.312,1106.157ZM1608.774,763.9s-82.674-43.559-186.689-78.229c0,0,20.448,1.777,48.9-36.45s76.447-139.569,118.231-139.569c0,0,23.115,1.778,23.115,45.338C1613.213,599.44,1582.1,714.118,1608.774,763.9Zm-161.8,184.908s8-96.01,8-128.9-8-54.228-18.668-66.673c0,0,149.352,48.894,240.029,110.233,0,0-33.785,2.667-80.894,51.562S1453.2,1089.266,1446.976,948.808Zm250.695-556.5c67.558,79.119,72.008,106.679,72.008,106.679-30.231-25.781-129.794-63.12-129.794-63.12C1668.333,424.312,1697.671,392.307,1697.671,392.307ZM1557.211,272.295s56.892,38.226,92.449,72.008c0,0-31.111,49.783-49.779,49.783s-51.556-28.447-51.556-77.341C1548.326,290.965,1557.211,272.295,1557.211,272.295ZM1489.65,517.654c-17.782,30.225-73.788,123.568-106.678,123.568s-40-54.228-39.114-80.008,8-132.458-23.119-164.462c0,0,58.672,8,217.8,69.341C1538.543,466.093,1507.428,488.318,1489.65,517.654Zm12.442-282.7c-19.555,65.784,9.78,163.573,9.78,163.573-69.338-40.894-171.57-51.562-171.57-51.562,40.886-34.67,88.007-143.125,88.007-143.125C1457.646,205.622,1502.092,234.959,1502.092,234.959Zm-128.9-53.339s-58.669,127.124-92.449,127.124-51.563-50.67-57.786-152.014C1222.063,156.729,1286.958,149.617,1373.188,181.619Zm-297.8-14.223s56.892-10.668,93.339-10.668c0,0-3.556,139.569,36.451,169.795,0,0-97.793-22.224-185.8-22.224C1018.489,303.411,1067.385,263.406,1075.388,167.4Zm-60.456,8.89S986.488,280.3,956.26,280.3s-47.116-61.34-47.116-61.34ZM949.151,490.1c13.332,56,24,104.9,49.779,128.013,0,0-78.227-7.112-193.792,7.113L807.8,619s24.892-24,30.228-59.562,24.891-173.349,56.892-173.349S935.815,434.979,949.151,490.1ZM853.138,239.4s13.336,36.447,39.121,64.9c0,0-96.9,0-144.906,12.446ZM676.231,379.863S783.8,362.971,828.25,362.971c0,0-33.784,45.338-33.784,93.342S777.577,599.44,740.236,599.44,651.343,479.427,630.895,434.089C631.785,434.979,662.009,393.2,676.231,379.863ZM598,488.318c30.228,101.343,85.347,150.237,85.347,150.237-74.678,0-164.461,40.894-164.461,40.894C528.663,586.994,598,488.318,598,488.318ZM502.881,745.232l78.231-28.446s-20.449,26.668-20.449,67.561S562.447,893.692,558,915.915c-4.446,21.336-28.448,52.451-47.12,52.451C510.88,968.366,489.549,891.912,502.881,745.232Zm155.575,405.375c0,73.784-22.225,91.565-22.225,91.565-48.9-32.893-104.9-187.576-104.9-187.576,97.789-38.225,160.014-47.115,160.014-47.115C671.785,1034.151,658.456,1075.931,658.456,1150.607Zm-64.9-175.129c30.221-41.782,16.892-60.449,24-153.793s43.56-133.347,86.23-27.559,82.677,143.126,82.677,143.126C717.129,938.14,593.558,975.477,593.558,975.477Zm128.9,208.021c0-34.67,14.222-333.366,120.014-24,0,0,13.336,40,40.9,67.563,0,0-150.243,11.556-188.466,39.115C694.9,1266.174,722.458,1218.168,722.458,1183.5Zm69.345,216.91s-45.336-23.112-92.453-73.786c0,0,80.011-31.113,128.9-31.113C828.25,1295.509,791.8,1315.956,791.8,1400.409Zm48.893,35.559c0-11.557,12.442-53.339,12.442-53.339,21.335-79.118,66.672-63.116,86.234,8s33.781,100.456,33.781,100.456C919.809,1475.083,840.7,1435.967,840.7,1435.967Zm221.353,72.9c-40,0-45.336-92.454-69.342-151.126S944.7,1287.51,944.7,1287.51s160.018-2.668,300.477,56.893c0,0-35.557,0-70.232,48.894S1102.06,1508.865,1062.049,1508.865Zm229.356,7.111s-55.116,7.112-138.679,7.112a174.929,174.929,0,0,0,37.337-40.893c16.006-24.892,51.563-84.454,80.011-84.454C1297.627,1397.741,1302.964,1450.192,1291.4,1515.976Zm54.229-4.446s23.115-61.338.89-121.79c0,0,79.121,39.116,115.564,72.9C1462.088,1462.637,1395.413,1497.307,1345.634,1511.53Zm145.792-226.689c-16.888,51.561-11.556,103.121-7.113,127.123,0,0-67.565-62.228-168.9-103.12,0,0,34.671-21.334,53.339-40.892s79.117-105.789,118.23-105.789S1508.318,1233.281,1491.426,1284.841Zm68.451,130.681s-26.672-26.671-26.672-48.895,44.454-131.57,44.454-163.572-7.113-43.56-7.113-43.56,122.677,84.454,140.459,109.344C1711.006,1268.84,1666.556,1332.846,1559.878,1415.523Zm112.9-251.583S1606.99,1106.157,1509.2,1062.6c0,0,45.336-11.556,76.454-49.782s79.114-93.343,102.232-93.343,29.331,21.335,29.331,38.224S1653.221,1107.047,1672.779,1163.94Zm92.449,26.671s-40.894-18.669-40.894-45.338,52.457-169.795,52.457-189.352-7.113-38.226-7.113-38.226c21.335,8.889,76.447,56.895,76.447,56.895C1839.907,1075.043,1765.228,1190.61,1765.228,1190.61Zm94.233-278.251s-78.23-67.562-150.239-100.454c0,0,16,8,68.451-39.115,51.563-47.117,71.125-68.452,71.125-68.452S1879.024,859.91,1859.461,912.36Z" transform="translate(-257.275 -304.794)" fill="#00674c" opacity="0.04"/></g></svg>